<?xml version="1.0" encoding="UTF-8" standalone="no"?>
<!DOCTYPE svg PUBLIC "-//W3C//DTD SVG 1.1//EN" "http://www.w3.org/Graphics/SVG/1.1/DTD/svg11.dtd">
<svg width="100%" height="100%" viewBox="0 0 1000 1000" version="1.1" xmlns="http://www.w3.org/2000/svg" xmlns:xlink="http://www.w3.org/1999/xlink" xml:space="preserve" xmlns:serif="http://www.serif.com/" style="fill-rule:evenodd;clip-rule:evenodd;stroke-linejoin:round;stroke-miterlimit:1.41421;">
    <g transform="matrix(0.58539,0.58539,-0.739716,0.739716,361.576,-148.261)">
        <path d="M972.814,152.922C972.814,126.543 945.751,105.126 912.418,105.126L175.239,105.126C141.905,105.126 114.843,126.543 114.843,152.922L114.843,248.513C114.843,274.893 141.905,296.309 175.239,296.309L912.418,296.309C945.751,296.309 972.814,274.893 972.814,248.513L972.814,152.922Z" style="fill:rgb(105,105,105);"/>
    </g>
    <g transform="matrix(0.58539,-0.58539,-0.739716,-0.739716,361.576,1147.72)">
        <path d="M972.814,152.922C972.814,126.543 945.751,105.126 912.418,105.126L175.239,105.126C141.905,105.126 114.843,126.543 114.843,152.922L114.843,248.513C114.843,274.893 141.905,296.309 175.239,296.309L912.418,296.309C945.751,296.309 972.814,274.893 972.814,248.513L972.814,152.922Z" style="fill:rgb(105,105,105);"/>
    </g>
</svg>
