<?xml version="1.0" encoding="UTF-8" standalone="no"?>
<!DOCTYPE svg PUBLIC "-//W3C//DTD SVG 1.1//EN" "http://www.w3.org/Graphics/SVG/1.1/DTD/svg11.dtd">
<svg width="100%" height="100%" viewBox="0 0 1000 1000" version="1.1" xmlns="http://www.w3.org/2000/svg" xmlns:xlink="http://www.w3.org/1999/xlink" xml:space="preserve" xmlns:serif="http://www.serif.com/" style="fill-rule:evenodd;clip-rule:evenodd;stroke-linejoin:round;stroke-miterlimit:1.41421;">
    <circle cx="246.457" cy="293.669" r="81.203" style="fill:rgb(105,105,105);"/>
    <path d="M565,750C565,767.156 566.843,783.885 570.34,800L116.728,800C79.9,800 50,770.1 50,733.272L50,166.728C50,129.9 79.899,100 116.728,100L883.272,100C920.101,100 950,129.9 950,166.728L950,569.15C934.824,556.545 918.039,545.813 900,537.309L900,150L100,150L100,750L565,750Z" style="fill:rgb(105,105,105);"/>
    <path d="M745.252,521.423C655.939,542.768 586.358,615.163 569.122,705.992L363.134,705.992L633.911,320.187L745.252,521.423Z" style="fill:rgb(105,105,105);"/>
    <path d="M586.239,652.303C578.487,669.219 572.685,687.211 569.122,705.992L189.651,705.992L406.791,396.703L586.239,652.303Z" style="fill:rgb(105,105,105);"/>
    <g transform="matrix(0.388889,0,0,0.388889,605.556,555.556)">
        <path d="M500,50C748.362,50 950,251.638 950,500C950,748.362 748.362,950 500,950C251.638,950 50,748.362 50,500C50,251.638 251.638,50 500,50ZM544.701,200L455.299,200C449.615,200 445,204.615 445,210.299L445,445L210.978,445C204.918,445.001 200,449.919 200,455.978L200,544.022C200,550.081 204.919,555 210.978,555L445,555L445,789.701C445,795.385 449.615,800 455.299,800L544.701,800C550.385,800 555,795.385 555,789.701L555,555L789.022,555C795.081,555 800,550.081 800,544.022L800,455.978C800,449.919 795.082,445.001 789.022,445L555,445L555,210.299C555,204.615 550.385,200 544.701,200Z" style="fill:rgb(105,105,105);"/>
    </g>
</svg>
