<?xml version="1.0" encoding="UTF-8" standalone="no"?>
<!DOCTYPE svg PUBLIC "-//W3C//DTD SVG 1.1//EN" "http://www.w3.org/Graphics/SVG/1.1/DTD/svg11.dtd">
<svg width="100%" height="100%" viewBox="0 0 1000 1000" version="1.1" xmlns="http://www.w3.org/2000/svg" xmlns:xlink="http://www.w3.org/1999/xlink" xml:space="preserve" xmlns:serif="http://www.serif.com/" style="fill-rule:evenodd;clip-rule:evenodd;stroke-linejoin:round;stroke-miterlimit:1.41421;">
    <path d="M306.251,677.035C354.263,729.545 423.313,762.5 500,762.5C639.894,762.5 754.375,652.831 762.086,514.852L849.69,514.852C841.897,701.145 688.195,850 500,850C371.403,850 258.911,780.496 198.073,677.035L306.251,677.035ZM237.75,488.461L150.187,488.461C156.284,300.623 310.691,150 500,150C628.735,150 741.33,219.653 802.122,323.297L694.052,323.297C646.028,270.595 576.848,237.5 500,237.5C358.99,237.5 243.799,348.927 237.75,488.461Z" style="fill:rgb(105,105,105);"/>
    <g transform="matrix(-0.240585,0.222212,-0.280794,-0.30401,459.568,401.719)">
        <path d="M972.814,152.922C972.814,126.543 945.751,105.126 912.418,105.126L175.239,105.126C141.905,105.126 114.843,126.543 114.843,152.922L114.843,248.513C114.843,274.893 141.905,296.309 175.239,296.309L912.418,296.309C945.751,296.309 972.814,274.893 972.814,248.513L972.814,152.922Z" style="fill:rgb(105,105,105);"/>
    </g>
    <g transform="matrix(0.234984,-0.228127,0.288268,0.296933,541.73,605.905)">
        <path d="M972.814,152.922C972.814,126.543 945.751,105.126 912.418,105.126L175.239,105.126C141.905,105.126 114.843,126.543 114.843,152.922L114.843,248.513C114.843,274.893 141.905,296.309 175.239,296.309L912.418,296.309C945.751,296.309 972.814,274.893 972.814,248.513L972.814,152.922Z" style="fill:rgb(105,105,105);"/>
    </g>
    <g transform="matrix(0.222212,0.240585,0.30401,-0.280794,-52.7197,381.382)">
        <path d="M972.814,152.922C972.814,126.543 945.751,105.126 912.418,105.126L175.239,105.126C141.905,105.126 114.843,126.543 114.843,152.922L114.843,248.513C114.843,274.893 141.905,296.309 175.239,296.309L912.418,296.309C945.751,296.309 972.814,274.893 972.814,248.513L972.814,152.922Z" style="fill:rgb(105,105,105);"/>
    </g>
    <g transform="matrix(-0.228127,-0.234984,-0.296933,0.288268,1054.36,613.496)">
        <path d="M972.814,152.922C972.814,126.543 945.751,105.126 912.418,105.126L175.239,105.126C141.905,105.126 114.843,126.543 114.843,152.922L114.843,248.513C114.843,274.893 141.905,296.309 175.239,296.309L912.418,296.309C945.751,296.309 972.814,274.893 972.814,248.513L972.814,152.922Z" style="fill:rgb(105,105,105);"/>
    </g>
</svg>
